<svg width="28" height="29" viewBox="0 0 28 29" fill="none" xmlns="http://www.w3.org/2000/svg">
<path d="M13.9984 7.81017C10.0256 7.81017 6.82118 11.0153 6.82118 14.989C6.82118 18.9627 10.0256 22.1679 13.9984 22.1679C17.9712 22.1679 21.1757 18.9627 21.1757 14.989C21.1757 11.0153 17.9712 7.81017 13.9984 7.81017ZM13.9984 19.6562C11.4311 19.6562 9.33228 17.5632 9.33228 14.989C9.33228 12.4149 11.4249 10.3218 13.9984 10.3218C16.572 10.3218 18.6646 12.4149 18.6646 14.989C18.6646 17.5632 16.5657 19.6562 13.9984 19.6562ZM23.1433 7.51652C23.1433 8.44745 22.3937 9.19096 21.4693 9.19096C20.5385 9.19096 19.7952 8.44121 19.7952 7.51652C19.7952 6.59183 20.5448 5.84208 21.4693 5.84208C22.3937 5.84208 23.1433 6.59183 23.1433 7.51652ZM27.8969 9.21595C27.7907 6.97295 27.2785 4.98611 25.6357 3.34916C23.9991 1.71221 22.0127 1.19988 19.7702 1.08742C17.459 0.956212 10.5316 0.956212 8.2204 1.08742C5.98415 1.19363 3.99775 1.70596 2.35492 3.34291C0.712088 4.97987 0.20612 6.9667 0.0936829 9.2097C-0.0374939 11.5214 -0.0374939 18.4504 0.0936829 20.7621C0.199874 23.0051 0.712088 24.9919 2.35492 26.6289C3.99775 28.2658 5.9779 28.7781 8.2204 28.8906C10.5316 29.0218 17.459 29.0218 19.7702 28.8906C22.0127 28.7844 23.9991 28.2721 25.6357 26.6289C27.2723 24.9919 27.7845 23.0051 27.8969 20.7621C28.0281 18.4504 28.0281 11.5277 27.8969 9.21595ZM24.9111 23.2425C24.4239 24.4671 23.4806 25.4105 22.2501 25.9041C20.4073 26.6351 16.0348 26.4664 13.9984 26.4664C11.9621 26.4664 7.58325 26.6289 5.74678 25.9041C4.52246 25.4168 3.57924 24.4733 3.08576 23.2425C2.35492 21.3994 2.52358 17.0258 2.52358 14.989C2.52358 12.9522 2.36117 8.57241 3.08576 6.73553C3.57299 5.51094 4.51621 4.5675 5.74678 4.07392C7.5895 3.34291 11.9621 3.51161 13.9984 3.51161C16.0348 3.51161 20.4136 3.34916 22.2501 4.07392C23.4744 4.56125 24.4176 5.50469 24.9111 6.73553C25.6419 8.57866 25.4733 12.9522 25.4733 14.989C25.4733 17.0258 25.6419 21.4056 24.9111 23.2425Z" fill="#CE0CFF"/>
</svg>
