<svg width="149" height="35" viewBox="0 0 149 35" fill="none" xmlns="http://www.w3.org/2000/svg">
<path d="M19.0356 25.3047C18.2446 26.252 17.1264 26.9893 15.6811 27.5166C14.2358 28.0342 12.6342 28.293 10.8764 28.293C9.0307 28.293 7.40961 27.8926 6.01312 27.0918C4.6264 26.2812 3.55219 25.1094 2.79047 23.5762C2.03851 22.043 1.65277 20.2412 1.63324 18.1709V16.7207C1.63324 14.5918 1.98969 12.751 2.70258 11.1982C3.42523 9.63574 4.46039 8.44434 5.80804 7.62402C7.16547 6.79395 8.75238 6.37891 10.5688 6.37891C13.0981 6.37891 15.0756 6.98437 16.5014 8.19531C17.9272 9.39648 18.7719 11.1494 19.0356 13.4541H14.7582C14.5629 12.2334 14.1284 11.3398 13.4545 10.7734C12.7905 10.207 11.8725 9.92383 10.7006 9.92383C9.20648 9.92383 8.06879 10.4854 7.28754 11.6084C6.50629 12.7314 6.11078 14.4014 6.10101 16.6182V17.9805C6.10101 20.2168 6.52582 21.9062 7.37543 23.0488C8.22504 24.1914 9.47015 24.7627 11.1108 24.7627C12.7612 24.7627 13.9379 24.4111 14.6411 23.708V20.0312H10.642V16.7939H19.0356V25.3047ZM31.5161 28C31.3207 27.6191 31.1791 27.1455 31.0912 26.5791C30.0659 27.7217 28.7328 28.293 27.0922 28.293C25.5395 28.293 24.2504 27.8438 23.225 26.9453C22.2094 26.0469 21.7016 24.9141 21.7016 23.5469C21.7016 21.8672 22.3217 20.5781 23.562 19.6797C24.812 18.7812 26.6137 18.3271 28.9672 18.3174H30.9155V17.4092C30.9155 16.6768 30.725 16.0908 30.3442 15.6514C29.9731 15.2119 29.3823 14.9922 28.5717 14.9922C27.8588 14.9922 27.2973 15.1631 26.8871 15.5049C26.4868 15.8467 26.2866 16.3154 26.2866 16.9111H22.0532C22.0532 15.9932 22.3364 15.1436 22.9028 14.3623C23.4692 13.5811 24.27 12.9707 25.3051 12.5312C26.3403 12.082 27.5024 11.8574 28.7914 11.8574C30.7446 11.8574 32.2924 12.3506 33.435 13.3369C34.5873 14.3135 35.1635 15.6904 35.1635 17.4678V24.3379C35.1733 25.8418 35.3832 26.9795 35.7934 27.751V28H31.5161ZM28.0151 25.0557C28.6401 25.0557 29.2162 24.9189 29.7436 24.6455C30.2709 24.3623 30.6616 23.9863 30.9155 23.5176V20.793H29.3334C27.2143 20.793 26.0864 21.5254 25.9496 22.9902L25.935 23.2393C25.935 23.7666 26.1205 24.2012 26.4916 24.543C26.8627 24.8848 27.3705 25.0557 28.0151 25.0557ZM42.3852 12.1504L42.517 13.9229C43.6401 12.5459 45.1586 11.8574 47.0727 11.8574C49.1137 11.8574 50.5151 12.6631 51.2768 14.2744C52.3901 12.6631 53.977 11.8574 56.0375 11.8574C57.7563 11.8574 59.0356 12.3604 59.8754 13.3662C60.7153 14.3623 61.1352 15.8662 61.1352 17.8779V28H56.8871V17.8926C56.8871 16.9941 56.7114 16.3398 56.3598 15.9297C56.0082 15.5098 55.3881 15.2998 54.4995 15.2998C53.2299 15.2998 52.351 15.9053 51.8627 17.1162L51.8774 28H47.644V17.9072C47.644 16.9893 47.4633 16.3252 47.102 15.915C46.7407 15.5049 46.1254 15.2998 45.2563 15.2998C44.0551 15.2998 43.186 15.7979 42.6489 16.7939V28H38.4155V12.1504H42.3852ZM71.6967 28.293C69.3725 28.293 67.478 27.5801 66.0131 26.1543C64.558 24.7285 63.8305 22.8291 63.8305 20.4561V20.0459C63.8305 18.4541 64.1381 17.0332 64.7534 15.7832C65.3686 14.5234 66.2377 13.5566 67.3608 12.8828C68.4936 12.1992 69.7827 11.8574 71.228 11.8574C73.3959 11.8574 75.1 12.541 76.3403 13.9082C77.5903 15.2754 78.2153 17.2139 78.2153 19.7236V21.4521H68.1225C68.2592 22.4873 68.6694 23.3174 69.353 23.9424C70.0463 24.5674 70.9203 24.8799 71.975 24.8799C73.6059 24.8799 74.8803 24.2891 75.7983 23.1074L77.8784 25.4365C77.2436 26.335 76.3842 27.0381 75.3002 27.5459C74.2162 28.0439 73.0151 28.293 71.6967 28.293ZM71.2133 15.2852C70.3735 15.2852 69.6899 15.5684 69.1625 16.1348C68.645 16.7012 68.3129 17.5117 68.1664 18.5664H74.0551V18.2295C74.0356 17.292 73.7817 16.5693 73.2934 16.0615C72.8051 15.5439 72.1118 15.2852 71.2133 15.2852Z" fill="#F3F3F3"/>
<path d="M88.413 18.4932C86.0009 17.7998 84.2431 16.9502 83.1396 15.9443C82.0458 14.9287 81.499 13.6787 81.499 12.1943C81.499 10.5146 82.1679 9.12793 83.5058 8.03418C84.8535 6.93066 86.6015 6.37891 88.7499 6.37891C90.2148 6.37891 91.5185 6.66211 92.6611 7.22852C93.8134 7.79492 94.7021 8.57617 95.3271 9.57227C95.9619 10.5684 96.2792 11.6572 96.2792 12.8389H93.4521C93.4521 11.5498 93.0419 10.5391 92.2216 9.80664C91.4013 9.06445 90.2441 8.69336 88.7499 8.69336C87.3632 8.69336 86.2792 9.00098 85.498 9.61621C84.7265 10.2217 84.3408 11.0664 84.3408 12.1504C84.3408 13.0195 84.707 13.7568 85.4394 14.3623C86.1816 14.958 87.4365 15.5049 89.204 16.0029C90.9814 16.501 92.3681 17.0527 93.3642 17.6582C94.3701 18.2539 95.1122 18.9521 95.5908 19.7529C96.079 20.5537 96.3232 21.4961 96.3232 22.5801C96.3232 24.3086 95.6494 25.6953 94.3017 26.7402C92.954 27.7754 91.1523 28.293 88.8964 28.293C87.4316 28.293 86.0644 28.0146 84.7949 27.458C83.5253 26.8916 82.5439 26.1201 81.8505 25.1436C81.1669 24.167 80.8251 23.0586 80.8251 21.8184H83.6523C83.6523 23.1074 84.1259 24.1279 85.0732 24.8799C86.0302 25.6221 87.3046 25.9932 88.8964 25.9932C90.3808 25.9932 91.5185 25.6904 92.3095 25.085C93.1005 24.4795 93.496 23.6543 93.496 22.6094C93.496 21.5645 93.1298 20.7588 92.3974 20.1924C91.665 19.6162 90.3369 19.0498 88.413 18.4932ZM102.227 14.0693C103.428 12.5947 104.99 11.8574 106.914 11.8574C110.264 11.8574 111.953 13.7471 111.982 17.5264V28H109.272V17.5117C109.263 16.3691 108.999 15.5244 108.481 14.9775C107.974 14.4307 107.178 14.1572 106.094 14.1572C105.215 14.1572 104.443 14.3916 103.779 14.8604C103.115 15.3291 102.598 15.9443 102.227 16.7061V28H99.5165V5.5H102.227V14.0693ZM115.322 19.9287C115.322 18.376 115.625 16.9795 116.23 15.7393C116.846 14.499 117.695 13.542 118.779 12.8682C119.873 12.1943 121.118 11.8574 122.515 11.8574C124.673 11.8574 126.416 12.6045 127.744 14.0986C129.082 15.5928 129.751 17.5801 129.751 20.0605V20.251C129.751 21.7939 129.453 23.1807 128.857 24.4111C128.271 25.6318 127.427 26.584 126.323 27.2676C125.229 27.9512 123.97 28.293 122.544 28.293C120.395 28.293 118.652 27.5459 117.314 26.0518C115.986 24.5576 115.322 22.5801 115.322 20.1191V19.9287ZM118.047 20.251C118.047 22.0088 118.452 23.4199 119.263 24.4844C120.083 25.5488 121.177 26.0811 122.544 26.0811C123.921 26.0811 125.015 25.5439 125.825 24.4697C126.636 23.3857 127.041 21.8721 127.041 19.9287C127.041 18.1904 126.626 16.7842 125.796 15.71C124.976 14.626 123.882 14.084 122.515 14.084C121.177 14.084 120.098 14.6162 119.277 15.6807C118.457 16.7451 118.047 18.2686 118.047 20.251ZM146.538 20.251C146.538 22.6631 145.986 24.6064 144.883 26.0811C143.779 27.5557 142.285 28.293 140.4 28.293C138.477 28.293 136.963 27.6826 135.859 26.4619V34.0938H133.149V12.1504H135.625L135.757 13.9082C136.86 12.541 138.393 11.8574 140.356 11.8574C142.261 11.8574 143.765 12.5752 144.868 14.0107C145.981 15.4463 146.538 17.4434 146.538 20.002V20.251ZM143.828 19.9434C143.828 18.1562 143.447 16.7451 142.685 15.71C141.924 14.6748 140.879 14.1572 139.551 14.1572C137.91 14.1572 136.68 14.8848 135.859 16.3398V23.9131C136.67 25.3584 137.91 26.0811 139.58 26.0811C140.879 26.0811 141.909 25.5684 142.671 24.543C143.442 23.5078 143.828 21.9746 143.828 19.9434Z" fill="#D01418"/>
</svg>
