<svg width="32" height="27" viewBox="0 0 32 27" fill="none" xmlns="http://www.w3.org/2000/svg">
<path d="M28.7106 6.48479C28.7309 6.76915 28.7309 7.05358 28.7309 7.33794C28.7309 16.0113 22.132 26.0051 10.0711 26.0051C6.35531 26.0051 2.90356 24.9285 0 23.0598C0.527937 23.1207 1.0355 23.1411 1.58375 23.1411C4.64969 23.1411 7.47206 22.1052 9.72587 20.338C6.84262 20.277 4.42637 18.388 3.59387 15.7879C4 15.8488 4.40606 15.8895 4.8325 15.8895C5.42131 15.8895 6.01019 15.8082 6.55837 15.6661C3.55331 15.0566 1.29944 12.4161 1.29944 9.22699V9.14577C2.1725 9.63327 3.18781 9.93796 4.26387 9.97853C2.49737 8.80039 1.34006 6.78947 1.34006 4.51446C1.34006 3.29573 1.66487 2.17854 2.23344 1.20353C5.46187 5.18478 10.3147 7.78474 15.7562 8.06916C15.6547 7.58166 15.5938 7.0739 15.5938 6.56607C15.5938 2.95041 18.5177 0.00512695 22.1522 0.00512695C24.0405 0.00512695 25.7461 0.797312 26.9441 2.077C28.4262 1.79264 29.8476 1.24417 31.1065 0.492631C30.6191 2.0161 29.5836 3.29579 28.2232 4.10823C29.5431 3.96612 30.8222 3.60041 31.9999 3.09265C31.1066 4.3926 29.9898 5.55036 28.7106 6.48479Z" fill="#14AED0"/>
</svg>
