<?xml version="1.0" encoding="utf-8"?>
<!-- Generator: Adobe Illustrator 24.2.1, SVG Export Plug-In . SVG Version: 6.00 Build 0)  -->
<svg version="1.1" id="Capa_1" xmlns="http://www.w3.org/2000/svg" xmlns:xlink="http://www.w3.org/1999/xlink" x="0px" y="0px"
	 viewBox="0 0 213.2 213.2" style="enable-background:new 0 0 213.2 213.2;" xml:space="preserve">
<style type="text/css">
	.st0{fill:#FFFF00;}
</style>
<path d="M167.7,68.8c-8.5-3.9-22.9-7.8-23.5-8c-0.9-0.2-1.8,0.1-2.2,0.9c-0.5,0.8-0.4,1.7,0.2,2.4c0.5,0.5,11.3,12.7,2.3,22.5
	c-2.7,3-6.2,4.6-9.9,4.6c-7.3,0-13.9-5.8-14.7-10.8c-1.4-9.1-1.6-21.4-1.6-21.5c0-0.9-0.6-1.7-1.5-1.9c-0.9-0.2-1.8,0.2-2.2,1
	l-5,8.8l-3.1-0.1l-3,0.1l-5-8.8c-0.5-0.8-1.4-1.2-2.2-1c-0.9,0.2-1.5,1-1.5,1.9c0,0.1-0.2,12.4-1.6,21.5c-0.8,5-7.3,10.8-14.7,10.8
	c-3.7,0-7.2-1.6-9.9-4.6c-9-9.8,1.8-22,2.3-22.5c0.6-0.7,0.7-1.6,0.2-2.4c-0.5-0.8-1.4-1.1-2.2-0.9c-0.6,0.2-15,4-23.5,8
	c-23.9,11-35.6,26.1-32.8,42.4c4,23.9,34.3,35.5,35.5,36c0.8,0.3,1.7,0.1,2.2-0.6c0.5-0.7,0.6-1.6,0.2-2.3c0-0.1-3.4-5.7-4.2-10.1
	c-0.2-1.2-0.8-5.1,1.4-7.7c1.2-1.5,3.2-2.2,5.9-2.2h0.1c8.3,0.1,17.1,9.7,17.2,9.8c0.4,0.5,1,0.7,1.6,0.7c0.6,0,1.2-0.3,1.5-0.8
	c0,0,3.1-4.1,4.8-5.8l0.3-0.3c1.2-1.2,2.8-2.9,5.6-2.9c1.6,0,3.4,0.5,5.5,1.6c6.3,3.3,12.6,18.6,14.5,24.2c0.3,0.8,1,1.4,1.9,1.4
	c0.9,0,1.6-0.5,1.9-1.4c1.9-5.6,8.2-20.9,14.5-24.2c2-1.1,3.8-1.6,5.4-1.6c2.8,0,4.4,1.7,5.6,2.9l0.3,0.3c1.6,1.7,4.7,5.8,4.8,5.8
	c0.4,0.5,0.9,0.8,1.5,0.8c0.6,0,1.2-0.2,1.6-0.7c0.1-0.1,8.8-9.8,17.2-9.8h0.1c2.7,0,4.7,0.8,6,2.2c2.1,2.5,1.6,6.5,1.4,7.7
	c-0.8,4.4-4.2,10-4.2,10.1c-0.4,0.7-0.4,1.7,0.2,2.3c0.5,0.7,1.4,0.9,2.2,0.6c1.3-0.5,31.5-12.2,35.5-36
	C203.3,94.8,191.7,79.8,167.7,68.8z M196.6,110.5c-2.7,16-19.4,26.3-27.9,30.6c0.9-1.9,1.7-4.1,2-6.2c0.4-2,0.9-7.2-2.2-11
	c-2-2.4-5.1-3.7-9-3.7h-0.2c-7.7,0.1-15.2,6.3-18.4,9.5c-1.1-1.4-2.6-3.3-3.7-4.4l-0.3-0.3c-1.4-1.5-4-4.1-8.5-4.1
	c-2.3,0-4.7,0.7-7.3,2c-6.3,3.3-11.8,14.7-14.5,21.4c-2.7-6.7-8.2-18.1-14.5-21.4c-2.6-1.4-5.1-2-7.3-2c-4.5,0-7.1,2.7-8.5,4.1
	l-0.3,0.3c-1.1,1.1-2.6,3-3.7,4.4c-3.2-3.1-10.7-9.4-18.4-9.5h-0.2c-4,0-7,1.2-9,3.7c-3.1,3.8-2.6,8.9-2.2,11c0.4,2.1,1.2,4.3,2,6.2
	c-8.6-4.3-25.2-14.6-27.9-30.6C13.4,92,31.5,79.6,47.1,72.4c5-2.3,12.4-4.7,17.4-6.2c-3.6,6.3-5.8,15.4,1.2,23.1
	c3.5,3.8,8,5.9,12.8,5.9c8.8,0,17.4-6.7,18.6-14.2c0.8-4.9,1.2-10.6,1.4-14.9l2.1,3.7c0.4,0.6,1,1,1.8,1l4.1-0.1l4.2,0.1
	c0.7,0,1.4-0.4,1.8-1l2.1-3.7c0.2,4.4,0.6,10,1.4,14.9c1.2,7.6,9.9,14.2,18.6,14.2c4.9,0,9.3-2,12.8-5.9c7-7.6,4.8-16.8,1.2-23.1
	c5,1.5,12.4,3.9,17.4,6.2C181.7,79.6,199.7,92,196.6,110.5z M167.7,68.8c-8.5-3.9-22.9-7.8-23.5-8c-0.9-0.2-1.8,0.1-2.2,0.9
	c-0.5,0.8-0.4,1.7,0.2,2.4c0.5,0.5,11.3,12.7,2.3,22.5c-2.7,3-6.2,4.6-9.9,4.6c-7.3,0-13.9-5.8-14.7-10.8
	c-1.4-9.1-1.6-21.4-1.6-21.5c0-0.9-0.6-1.7-1.5-1.9c-0.9-0.2-1.8,0.2-2.2,1l-5,8.8l-3.1-0.1l-3,0.1l-5-8.8c-0.5-0.8-1.4-1.2-2.2-1
	c-0.9,0.2-1.5,1-1.5,1.9c0,0.1-0.2,12.4-1.6,21.5c-0.8,5-7.3,10.8-14.7,10.8c-3.7,0-7.2-1.6-9.9-4.6c-9-9.8,1.8-22,2.3-22.5
	c0.6-0.7,0.7-1.6,0.2-2.4c-0.5-0.8-1.4-1.1-2.2-0.9c-0.6,0.2-15,4-23.5,8c-23.9,11-35.6,26.1-32.8,42.4c4,23.9,34.3,35.5,35.5,36
	c0.8,0.3,1.7,0.1,2.2-0.6c0.5-0.7,0.6-1.6,0.2-2.3c0-0.1-3.4-5.7-4.2-10.1c-0.2-1.2-0.8-5.1,1.4-7.7c1.2-1.5,3.2-2.2,5.9-2.2h0.1
	c8.3,0.1,17.1,9.7,17.2,9.8c0.4,0.5,1,0.7,1.6,0.7c0.6,0,1.2-0.3,1.5-0.8c0,0,3.1-4.1,4.8-5.8l0.3-0.3c1.2-1.2,2.8-2.9,5.6-2.9
	c1.6,0,3.4,0.5,5.5,1.6c6.3,3.3,12.6,18.6,14.5,24.2c0.3,0.8,1,1.4,1.9,1.4c0.9,0,1.6-0.5,1.9-1.4c1.9-5.6,8.2-20.9,14.5-24.2
	c2-1.1,3.8-1.6,5.4-1.6c2.8,0,4.4,1.7,5.6,2.9l0.3,0.3c1.6,1.7,4.7,5.8,4.8,5.8c0.4,0.5,0.9,0.8,1.5,0.8c0.6,0,1.2-0.2,1.6-0.7
	c0.1-0.1,8.8-9.8,17.2-9.8h0.1c2.7,0,4.7,0.8,6,2.2c2.1,2.5,1.6,6.5,1.4,7.7c-0.8,4.4-4.2,10-4.2,10.1c-0.4,0.7-0.4,1.7,0.2,2.3
	c0.5,0.7,1.4,0.9,2.2,0.6c1.3-0.5,31.5-12.2,35.5-36C203.3,94.8,191.7,79.8,167.7,68.8z M196.6,110.5c-2.7,16-19.4,26.3-27.9,30.6
	c0.9-1.9,1.7-4.1,2-6.2c0.4-2,0.9-7.2-2.2-11c-2-2.4-5.1-3.7-9-3.7h-0.2c-7.7,0.1-15.2,6.3-18.4,9.5c-1.1-1.4-2.6-3.3-3.7-4.4
	l-0.3-0.3c-1.4-1.5-4-4.1-8.5-4.1c-2.3,0-4.7,0.7-7.3,2c-6.3,3.3-11.8,14.7-14.5,21.4c-2.7-6.7-8.2-18.1-14.5-21.4
	c-2.6-1.4-5.1-2-7.3-2c-4.5,0-7.1,2.7-8.5,4.1l-0.3,0.3c-1.1,1.1-2.6,3-3.7,4.4c-3.2-3.1-10.7-9.4-18.4-9.5h-0.2c-4,0-7,1.2-9,3.7
	c-3.1,3.8-2.6,8.9-2.2,11c0.4,2.1,1.2,4.3,2,6.2c-8.6-4.3-25.2-14.6-27.9-30.6C13.4,92,31.5,79.6,47.1,72.4c5-2.3,12.4-4.7,17.4-6.2
	c-3.6,6.3-5.8,15.4,1.2,23.1c3.5,3.8,8,5.9,12.8,5.9c8.8,0,17.4-6.7,18.6-14.2c0.8-4.9,1.2-10.6,1.4-14.9l2.1,3.7c0.4,0.6,1,1,1.8,1
	l4.1-0.1l4.2,0.1c0.7,0,1.4-0.4,1.8-1l2.1-3.7c0.2,4.4,0.6,10,1.4,14.9c1.2,7.6,9.9,14.2,18.6,14.2c4.9,0,9.3-2,12.8-5.9
	c7-7.6,4.8-16.8,1.2-23.1c5,1.5,12.4,3.9,17.4,6.2C181.7,79.6,199.7,92,196.6,110.5z M181.5,62.9c-20.1-11.4-46.7-17.6-74.9-17.6
	c-28.3,0-54.9,6.3-74.9,17.6C11.2,74.5,0,90,0,106.6c0,16.6,11.2,32.1,31.6,43.7c20,11.4,46.7,17.6,74.9,17.6
	c28.3,0,54.9-6.3,74.9-17.6c20.4-11.6,31.6-27.1,31.6-43.7C213.2,90,201.9,74.5,181.5,62.9z M106.6,163.9C50,163.9,4,138.2,4,106.6
	C4,75,50,49.3,106.6,49.3c56.6,0,102.6,25.7,102.6,57.3C209.2,138.2,163.2,163.9,106.6,163.9z M167.7,68.8c-8.5-3.9-22.9-7.8-23.5-8
	c-0.9-0.2-1.8,0.1-2.2,0.9c-0.5,0.8-0.4,1.7,0.2,2.4c0.5,0.5,11.3,12.7,2.3,22.5c-2.7,3-6.2,4.6-9.9,4.6c-7.3,0-13.9-5.8-14.7-10.8
	c-1.4-9.1-1.6-21.4-1.6-21.5c0-0.9-0.6-1.7-1.5-1.9c-0.9-0.2-1.8,0.2-2.2,1l-5,8.8l-3.1-0.1l-3,0.1l-5-8.8c-0.5-0.8-1.4-1.2-2.2-1
	c-0.9,0.2-1.5,1-1.5,1.9c0,0.1-0.2,12.4-1.6,21.5c-0.8,5-7.3,10.8-14.7,10.8c-3.7,0-7.2-1.6-9.9-4.6c-9-9.8,1.8-22,2.3-22.5
	c0.6-0.7,0.7-1.6,0.2-2.4c-0.5-0.8-1.4-1.1-2.2-0.9c-0.6,0.2-15,4-23.5,8c-23.9,11-35.6,26.1-32.8,42.4c4,23.9,34.3,35.5,35.5,36
	c0.8,0.3,1.7,0.1,2.2-0.6c0.5-0.7,0.6-1.6,0.2-2.3c0-0.1-3.4-5.7-4.2-10.1c-0.2-1.2-0.8-5.1,1.4-7.7c1.2-1.5,3.2-2.2,5.9-2.2h0.1
	c8.3,0.1,17.1,9.7,17.2,9.8c0.4,0.5,1,0.7,1.6,0.7c0.6,0,1.2-0.3,1.5-0.8c0,0,3.1-4.1,4.8-5.8l0.3-0.3c1.2-1.2,2.8-2.9,5.6-2.9
	c1.6,0,3.4,0.5,5.5,1.6c6.3,3.3,12.6,18.6,14.5,24.2c0.3,0.8,1,1.4,1.9,1.4c0.9,0,1.6-0.5,1.9-1.4c1.9-5.6,8.2-20.9,14.5-24.2
	c2-1.1,3.8-1.6,5.4-1.6c2.8,0,4.4,1.7,5.6,2.9l0.3,0.3c1.6,1.7,4.7,5.8,4.8,5.8c0.4,0.5,0.9,0.8,1.5,0.8c0.6,0,1.2-0.2,1.6-0.7
	c0.1-0.1,8.8-9.8,17.2-9.8h0.1c2.7,0,4.7,0.8,6,2.2c2.1,2.5,1.6,6.5,1.4,7.7c-0.8,4.4-4.2,10-4.2,10.1c-0.4,0.7-0.4,1.7,0.2,2.3
	c0.5,0.7,1.4,0.9,2.2,0.6c1.3-0.5,31.5-12.2,35.5-36C203.3,94.8,191.7,79.8,167.7,68.8z M196.6,110.5c-2.7,16-19.4,26.3-27.9,30.6
	c0.9-1.9,1.7-4.1,2-6.2c0.4-2,0.9-7.2-2.2-11c-2-2.4-5.1-3.7-9-3.7h-0.2c-7.7,0.1-15.2,6.3-18.4,9.5c-1.1-1.4-2.6-3.3-3.7-4.4
	l-0.3-0.3c-1.4-1.5-4-4.1-8.5-4.1c-2.3,0-4.7,0.7-7.3,2c-6.3,3.3-11.8,14.7-14.5,21.4c-2.7-6.7-8.2-18.1-14.5-21.4
	c-2.6-1.4-5.1-2-7.3-2c-4.5,0-7.1,2.7-8.5,4.1l-0.3,0.3c-1.1,1.1-2.6,3-3.7,4.4c-3.2-3.1-10.7-9.4-18.4-9.5h-0.2c-4,0-7,1.2-9,3.7
	c-3.1,3.8-2.6,8.9-2.2,11c0.4,2.1,1.2,4.3,2,6.2c-8.6-4.3-25.2-14.6-27.9-30.6C13.4,92,31.5,79.6,47.1,72.4c5-2.3,12.4-4.7,17.4-6.2
	c-3.6,6.3-5.8,15.4,1.2,23.1c3.5,3.8,8,5.9,12.8,5.9c8.8,0,17.4-6.7,18.6-14.2c0.8-4.9,1.2-10.6,1.4-14.9l2.1,3.7c0.4,0.6,1,1,1.8,1
	l4.1-0.1l4.2,0.1c0.7,0,1.4-0.4,1.8-1l2.1-3.7c0.2,4.4,0.6,10,1.4,14.9c1.2,7.6,9.9,14.2,18.6,14.2c4.9,0,9.3-2,12.8-5.9
	c7-7.6,4.8-16.8,1.2-23.1c5,1.5,12.4,3.9,17.4,6.2C181.7,79.6,199.7,92,196.6,110.5z M167.7,68.8c-8.5-3.9-22.9-7.8-23.5-8
	c-0.9-0.2-1.8,0.1-2.2,0.9c-0.5,0.8-0.4,1.7,0.2,2.4c0.5,0.5,11.3,12.7,2.3,22.5c-2.7,3-6.2,4.6-9.9,4.6c-7.3,0-13.9-5.8-14.7-10.8
	c-1.4-9.1-1.6-21.4-1.6-21.5c0-0.9-0.6-1.7-1.5-1.9c-0.9-0.2-1.8,0.2-2.2,1l-5,8.8l-3.1-0.1l-3,0.1l-5-8.8c-0.5-0.8-1.4-1.2-2.2-1
	c-0.9,0.2-1.5,1-1.5,1.9c0,0.1-0.2,12.4-1.6,21.5c-0.8,5-7.3,10.8-14.7,10.8c-3.7,0-7.2-1.6-9.9-4.6c-9-9.8,1.8-22,2.3-22.5
	c0.6-0.7,0.7-1.6,0.2-2.4c-0.5-0.8-1.4-1.1-2.2-0.9c-0.6,0.2-15,4-23.5,8c-23.9,11-35.6,26.1-32.8,42.4c4,23.9,34.3,35.5,35.5,36
	c0.8,0.3,1.7,0.1,2.2-0.6c0.5-0.7,0.6-1.6,0.2-2.3c0-0.1-3.4-5.7-4.2-10.1c-0.2-1.2-0.8-5.1,1.4-7.7c1.2-1.5,3.2-2.2,5.9-2.2h0.1
	c8.3,0.1,17.1,9.7,17.2,9.8c0.4,0.5,1,0.7,1.6,0.7c0.6,0,1.2-0.3,1.5-0.8c0,0,3.1-4.1,4.8-5.8l0.3-0.3c1.2-1.2,2.8-2.9,5.6-2.9
	c1.6,0,3.4,0.5,5.5,1.6c6.3,3.3,12.6,18.6,14.5,24.2c0.3,0.8,1,1.4,1.9,1.4c0.9,0,1.6-0.5,1.9-1.4c1.9-5.6,8.2-20.9,14.5-24.2
	c2-1.1,3.8-1.6,5.4-1.6c2.8,0,4.4,1.7,5.6,2.9l0.3,0.3c1.6,1.7,4.7,5.8,4.8,5.8c0.4,0.5,0.9,0.8,1.5,0.8c0.6,0,1.2-0.2,1.6-0.7
	c0.1-0.1,8.8-9.8,17.2-9.8h0.1c2.7,0,4.7,0.8,6,2.2c2.1,2.5,1.6,6.5,1.4,7.7c-0.8,4.4-4.2,10-4.2,10.1c-0.4,0.7-0.4,1.7,0.2,2.3
	c0.5,0.7,1.4,0.9,2.2,0.6c1.3-0.5,31.5-12.2,35.5-36C203.3,94.8,191.7,79.8,167.7,68.8z M196.6,110.5c-2.7,16-19.4,26.3-27.9,30.6
	c0.9-1.9,1.7-4.1,2-6.2c0.4-2,0.9-7.2-2.2-11c-2-2.4-5.1-3.7-9-3.7h-0.2c-7.7,0.1-15.2,6.3-18.4,9.5c-1.1-1.4-2.6-3.3-3.7-4.4
	l-0.3-0.3c-1.4-1.5-4-4.1-8.5-4.1c-2.3,0-4.7,0.7-7.3,2c-6.3,3.3-11.8,14.7-14.5,21.4c-2.7-6.7-8.2-18.1-14.5-21.4
	c-2.6-1.4-5.1-2-7.3-2c-4.5,0-7.1,2.7-8.5,4.1l-0.3,0.3c-1.1,1.1-2.6,3-3.7,4.4c-3.2-3.1-10.7-9.4-18.4-9.5h-0.2c-4,0-7,1.2-9,3.7
	c-3.1,3.8-2.6,8.9-2.2,11c0.4,2.1,1.2,4.3,2,6.2c-8.6-4.3-25.2-14.6-27.9-30.6C13.4,92,31.5,79.6,47.1,72.4c5-2.3,12.4-4.7,17.4-6.2
	c-3.6,6.3-5.8,15.4,1.2,23.1c3.5,3.8,8,5.9,12.8,5.9c8.8,0,17.4-6.7,18.6-14.2c0.8-4.9,1.2-10.6,1.4-14.9l2.1,3.7c0.4,0.6,1,1,1.8,1
	l4.1-0.1l4.2,0.1c0.7,0,1.4-0.4,1.8-1l2.1-3.7c0.2,4.4,0.6,10,1.4,14.9c1.2,7.6,9.9,14.2,18.6,14.2c4.9,0,9.3-2,12.8-5.9
	c7-7.6,4.8-16.8,1.2-23.1c5,1.5,12.4,3.9,17.4,6.2C181.7,79.6,199.7,92,196.6,110.5z M167.7,68.8c-8.5-3.9-22.9-7.8-23.5-8
	c-0.9-0.2-1.8,0.1-2.2,0.9c-0.5,0.8-0.4,1.7,0.2,2.4c0.5,0.5,11.3,12.7,2.3,22.5c-2.7,3-6.2,4.6-9.9,4.6c-7.3,0-13.9-5.8-14.7-10.8
	c-1.4-9.1-1.6-21.4-1.6-21.5c0-0.9-0.6-1.7-1.5-1.9c-0.9-0.2-1.8,0.2-2.2,1l-5,8.8l-3.1-0.1l-3,0.1l-5-8.8c-0.5-0.8-1.4-1.2-2.2-1
	c-0.9,0.2-1.5,1-1.5,1.9c0,0.1-0.2,12.4-1.6,21.5c-0.8,5-7.3,10.8-14.7,10.8c-3.7,0-7.2-1.6-9.9-4.6c-9-9.8,1.8-22,2.3-22.5
	c0.6-0.7,0.7-1.6,0.2-2.4c-0.5-0.8-1.4-1.1-2.2-0.9c-0.6,0.2-15,4-23.5,8c-23.9,11-35.6,26.1-32.8,42.4c4,23.9,34.3,35.5,35.5,36
	c0.8,0.3,1.7,0.1,2.2-0.6c0.5-0.7,0.6-1.6,0.2-2.3c0-0.1-3.4-5.7-4.2-10.1c-0.2-1.2-0.8-5.1,1.4-7.7c1.2-1.5,3.2-2.2,5.9-2.2h0.1
	c8.3,0.1,17.1,9.7,17.2,9.8c0.4,0.5,1,0.7,1.6,0.7c0.6,0,1.2-0.3,1.5-0.8c0,0,3.1-4.1,4.8-5.8l0.3-0.3c1.2-1.2,2.8-2.9,5.6-2.9
	c1.6,0,3.4,0.5,5.5,1.6c6.3,3.3,12.6,18.6,14.5,24.2c0.3,0.8,1,1.4,1.9,1.4c0.9,0,1.6-0.5,1.9-1.4c1.9-5.6,8.2-20.9,14.5-24.2
	c2-1.1,3.8-1.6,5.4-1.6c2.8,0,4.4,1.7,5.6,2.9l0.3,0.3c1.6,1.7,4.7,5.8,4.8,5.8c0.4,0.5,0.9,0.8,1.5,0.8c0.6,0,1.2-0.2,1.6-0.7
	c0.1-0.1,8.8-9.8,17.2-9.8h0.1c2.7,0,4.7,0.8,6,2.2c2.1,2.5,1.6,6.5,1.4,7.7c-0.8,4.4-4.2,10-4.2,10.1c-0.4,0.7-0.4,1.7,0.2,2.3
	c0.5,0.7,1.4,0.9,2.2,0.6c1.3-0.5,31.5-12.2,35.5-36C203.3,94.8,191.7,79.8,167.7,68.8z M196.6,110.5c-2.7,16-19.4,26.3-27.9,30.6
	c0.9-1.9,1.7-4.1,2-6.2c0.4-2,0.9-7.2-2.2-11c-2-2.4-5.1-3.7-9-3.7h-0.2c-7.7,0.1-15.2,6.3-18.4,9.5c-1.1-1.4-2.6-3.3-3.7-4.4
	l-0.3-0.3c-1.4-1.5-4-4.1-8.5-4.1c-2.3,0-4.7,0.7-7.3,2c-6.3,3.3-11.8,14.7-14.5,21.4c-2.7-6.7-8.2-18.1-14.5-21.4
	c-2.6-1.4-5.1-2-7.3-2c-4.5,0-7.1,2.7-8.5,4.1l-0.3,0.3c-1.1,1.1-2.6,3-3.7,4.4c-3.2-3.1-10.7-9.4-18.4-9.5h-0.2c-4,0-7,1.2-9,3.7
	c-3.1,3.8-2.6,8.9-2.2,11c0.4,2.1,1.2,4.3,2,6.2c-8.6-4.3-25.2-14.6-27.9-30.6C13.4,92,31.5,79.6,47.1,72.4c5-2.3,12.4-4.7,17.4-6.2
	c-3.6,6.3-5.8,15.4,1.2,23.1c3.5,3.8,8,5.9,12.8,5.9c8.8,0,17.4-6.7,18.6-14.2c0.8-4.9,1.2-10.6,1.4-14.9l2.1,3.7c0.4,0.6,1,1,1.8,1
	l4.1-0.1l4.2,0.1c0.7,0,1.4-0.4,1.8-1l2.1-3.7c0.2,4.4,0.6,10,1.4,14.9c1.2,7.6,9.9,14.2,18.6,14.2c4.9,0,9.3-2,12.8-5.9
	c7-7.6,4.8-16.8,1.2-23.1c5,1.5,12.4,3.9,17.4,6.2C181.7,79.6,199.7,92,196.6,110.5z"/>
<path class="st0" d="M106.6,49.3C50,49.3,4,75,4,106.6c0,31.6,46,57.3,102.6,57.3c56.6,0,102.6-25.7,102.6-57.3
	C209.2,75,163.2,49.3,106.6,49.3z M165,147.2c-0.8,0.3-1.7,0.1-2.2-0.6c-0.5-0.7-0.6-1.6-0.2-2.3c0-0.1,3.4-5.7,4.2-10.1
	c0.2-1.2,0.7-5.1-1.4-7.7c-1.2-1.5-3.2-2.2-6-2.2h-0.1c-8.3,0.1-17.1,9.7-17.2,9.8c-0.4,0.5-1,0.7-1.6,0.7c-0.6,0-1.2-0.3-1.5-0.8
	c0,0-3.1-4.1-4.8-5.8l-0.3-0.3c-1.2-1.2-2.8-2.9-5.6-2.9c-1.6,0-3.4,0.5-5.4,1.6c-6.3,3.3-12.6,18.6-14.5,24.2
	c-0.3,0.8-1,1.4-1.9,1.4c-0.9,0-1.6-0.5-1.9-1.4c-1.9-5.6-8.2-20.9-14.5-24.2c-2-1.1-3.9-1.6-5.5-1.6c-2.8,0-4.4,1.7-5.6,2.9
	l-0.3,0.3c-1.6,1.7-4.7,5.8-4.8,5.8c-0.4,0.5-0.9,0.8-1.5,0.8c-0.6,0-1.2-0.2-1.6-0.7c-0.1-0.1-8.8-9.8-17.2-9.8h-0.1
	c-2.7,0-4.7,0.8-5.9,2.2c-2.1,2.5-1.6,6.5-1.4,7.7c0.8,4.4,4.2,10,4.2,10.1c0.4,0.7,0.4,1.7-0.2,2.3c-0.5,0.7-1.5,0.9-2.2,0.6
	c-1.3-0.5-31.5-12.2-35.5-36c-2.8-16.3,8.9-31.4,32.8-42.4c8.5-3.9,22.9-7.8,23.5-8c0.8-0.2,1.8,0.1,2.2,0.9
	c0.5,0.8,0.4,1.7-0.2,2.4c-0.5,0.5-11.3,12.7-2.3,22.5c2.7,3,6.2,4.6,9.9,4.6c7.3,0,13.9-5.8,14.7-10.8c1.4-9.1,1.6-21.4,1.6-21.5
	c0-0.9,0.6-1.7,1.5-1.9c0.9-0.2,1.8,0.2,2.2,1l5,8.8l3-0.1l3.1,0.1l5-8.8c0.4-0.8,1.4-1.2,2.2-1c0.9,0.2,1.5,1,1.5,1.9
	c0,0.1,0.2,12.4,1.6,21.5c0.8,5,7.3,10.8,14.7,10.8c3.7,0,7.2-1.6,9.9-4.6c9-9.8-1.8-22-2.3-22.5c-0.6-0.7-0.7-1.6-0.2-2.4
	c0.5-0.8,1.4-1.1,2.2-0.9c0.6,0.2,15,4.1,23.5,8c23.9,11,35.6,26.1,32.9,42.4C196.6,135,166.3,146.7,165,147.2z"/>
<path d="M196.6,110.5c-2.7,16-19.4,26.3-27.9,30.6c0.9-1.9,1.7-4.1,2-6.2c0.4-2,0.9-7.2-2.2-11c-2-2.4-5.1-3.7-9-3.7h-0.2
	c-7.7,0.1-15.2,6.3-18.4,9.5c-1.1-1.4-2.6-3.3-3.7-4.4l-0.3-0.3c-1.4-1.5-4-4.1-8.5-4.1c-2.3,0-4.7,0.7-7.3,2
	c-6.3,3.3-11.8,14.7-14.5,21.4c-2.7-6.7-8.2-18.1-14.5-21.4c-2.6-1.4-5.1-2-7.3-2c-4.5,0-7.1,2.7-8.5,4.1l-0.3,0.3
	c-1.1,1.1-2.6,3-3.7,4.4c-3.2-3.1-10.7-9.4-18.4-9.5h-0.2c-4,0-7,1.2-9,3.7c-3.1,3.8-2.6,8.9-2.2,11c0.4,2.1,1.2,4.3,2,6.2
	c-8.6-4.3-25.2-14.6-27.9-30.6C13.4,92,31.5,79.6,47.1,72.4c5-2.3,12.4-4.7,17.4-6.2c-3.6,6.3-5.8,15.4,1.2,23.1
	c3.5,3.8,8,5.9,12.8,5.9c8.8,0,17.4-6.7,18.6-14.2c0.8-4.9,1.2-10.6,1.4-14.9l2.1,3.7c0.4,0.6,1,1,1.8,1l4.1-0.1l4.2,0.1
	c0.7,0,1.4-0.4,1.8-1l2.1-3.7c0.2,4.4,0.6,10,1.4,14.9c1.2,7.6,9.9,14.2,18.6,14.2c4.9,0,9.3-2,12.8-5.9c7-7.6,4.8-16.8,1.2-23.1
	c5,1.5,12.4,3.9,17.4,6.2C181.7,79.6,199.7,92,196.6,110.5z"/>
</svg>
