<svg width="67" height="67" viewBox="0 0 67 67" fill="none" xmlns="http://www.w3.org/2000/svg">
<path fill-rule="evenodd" clip-rule="evenodd" d="M32.0553 62.4608L33.5 59.6719L34.9447 62.4608C34.498 62.6914 34.0027 62.8117 33.5 62.8117C32.9973 62.8117 32.502 62.6914 32.0553 62.4608ZM32.0553 62.4608L33.5 59.6719L34.9447 62.4608L34.9531 62.4566L34.9782 62.444L35.0536 62.4021C35.4917 62.1749 35.9245 61.9375 36.3517 61.6903C41.4537 58.7848 46.2673 55.4 50.7274 51.5816C58.4408 44.9361 67 34.9656 67 23.0312C67 11.8758 58.2649 4.1875 49.2031 4.1875C42.7251 4.1875 37.0468 7.54587 33.5 12.6462C29.9532 7.54587 24.2749 4.1875 17.7969 4.1875C8.73512 4.1875 0 11.8758 0 23.0312C0 34.9656 8.56344 44.9361 16.2684 51.5816C21.1079 55.7187 26.3617 59.3448 31.9464 62.4021L32.0218 62.444L32.0469 62.4566H32.0553V62.4608Z" fill="#CC2424"/>
</svg>
