<?xml version="1.0" encoding="utf-8"?>
<!-- Generator: Adobe Illustrator 24.2.1, SVG Export Plug-In . SVG Version: 6.00 Build 0)  -->
<svg version="1.1" id="Capa_1" xmlns="http://www.w3.org/2000/svg" xmlns:xlink="http://www.w3.org/1999/xlink" x="0px" y="0px"
	 viewBox="0 0 213.2 213.2" style="enable-background:new 0 0 213.2 213.2;" xml:space="preserve">
<style type="text/css">
	.st0{fill:#061046;}
	.st1{fill:#CE1908;}
	.st2{fill:#FDFDFD;}
</style>
<g>
	<path class="st0" d="M104.9,213.1c-0.1-1.7-1.4-2.8-2.4-3.9c-2-2.2-4.6-3.7-7-5.4c-1.8-1.2-3.5-2.5-5.1-4c-3.4-3.1-2.4-11.8,1-14.5
		c2.9-2.4,8.9-3.1,11.3,0.8c0.4,0.7,1.1,1.3,1.9,2.2c0.3-3.4-1.3-5.7-2.8-7.9c-1.2-1.9-1.3-1.8,1-2.2c2.3-0.4,4.5-0.2,6.9,0.6
		c-2.9,2.4-3.6,5.5-3.9,9.4c0.8-0.9,1.3-1.3,1.6-1.8c2.2-2.9,5.3-3.6,8.5-2.8c3.4,0.8,5.2,3.5,5.9,6.7c1.4,6,0.1,9.1-5.1,12.6
		c-2.2,1.5-4.6,2.9-6.7,4.6c-2,1.5-3.8,3.1-4.4,5.7C105.4,213.1,105.2,213.1,104.9,213.1z"/>
	<path class="st0" d="M103.9,151.1c-0.6-2.7-0.5-5.5-1.4-8.4c-1.5,2.7-1.3,5.5-2,8c-1.8-0.3-3.6-0.6-5.5-0.9c-0.2-2,0.5-4.1,0-6.4
		c-1.9,1.6-1.8,3.8-2.4,5.6c-1.6-0.5-3.1-1-4.7-1.5c0.1-2,0.8-3.8,0.6-6.1c-1.4,1.7-1.6,3.6-2.4,5.2c-1-0.3-2-1-3.1-1.1
		c0.1-3.7,1.2-7.1,2.3-10.8c-4.3,0.7-8.4,1.2-12.4,2c-1.5,0.3-2.5-0.1-3.8-1c-3-2.3-4.3-5-3.2-8.7c0.1-0.2,0-0.5,0.1-0.7
		c0.7-4.2,0-8-2.1-12c-4.7-9.3-6.2-19.3-4.2-29.6c1.6-8.2,5-15.6,11.9-20.8c9.1-6.9,19.4-6.8,28.3,0.7c1.3,1.1,2.5,2.2,3.7,3.3
		c0.8,0.9,1.2,0.6,1.7-0.3c1.7-3.1,3.9-5.8,6.5-8.2c7.6-7,18-5.4,24.1-1.1c13.9,9.8,18.8,23.4,16.8,40c-0.8,6.9-3.3,13.3-5.7,19.7
		c-0.3,0.7-0.8,1.4-1.3,2c-1.4,2.1-2.1,4.3-0.9,6.8c1.1,2,0.5,3.8-0.9,5.4c-1.1,1.3-2.3,2.5-3.3,3.9c-0.7,1-1.4,1.1-2.5,0.6
		c-4.1-1.7-8.3-3-12.9-3.5c1.1,3.8,2.2,7.5,1.6,11.7c-1.8-2.3-1.8-5.2-3.7-7.4c-1,3.3,0.9,5.6,1.5,8.2c-1.5,0-2.7,0.8-4,1.4
		c-0.4-1.5-0.7-3-1.1-4.4c-0.1-0.5-0.1-1.2-0.7-1.2c-0.6,0-0.7,0.7-0.9,1.3c-0.5,1.9-0.3,3.9-0.4,5.8c-1.6,0.5-3.3,1-4.9,1.4
		c-0.3-2.3-0.4-4.7-1.4-7.4c-1.1,2.9-0.8,5.5-1.2,8C108.2,151.3,106,150.9,103.9,151.1z M91.5,120.2c0.6-2.4,1.1-4.3,2-6.2
		c0.9-1.9,2.5-3.4,3.7-5.1c1.7-2.4,3.5-4.8,4.6-7.6c1.9-4.7,0.2-9.6-4-11.1c-1.3-0.5-2.7-0.7-4.2-0.7c-4.2,0-6.9,2.5-7.5,6.6
		c-0.3,1.7,0,3,1.8,3.6c0.5,0.2,1.3,0.4,1.1,1.2c-0.2,1-0.2,2.2-1,3.1c0.1-2.1-0.7-3.5-2.6-4.2c-0.6-0.2-0.5-0.8-0.5-1.3
		c-0.1-0.9-0.1-1.7-0.3-2.6c-0.7-3.1-2.8-4.7-5.5-4.2c-1.9,0.4-3.8,1-5.4,2.3c-2.8,2.2-3.9,5.5-2.4,8.7c2,4.1,4.7,7.8,8.9,9.8
		C84.2,114.5,88.2,116.5,91.5,120.2z M127.9,110c1.4,0,2.1,0.9,2.9,1.5c0.8,0.6,1.3,0.5,1.9-0.2c1.7-1.9,3.4-3.7,5.2-5.5
		c0.7-0.7,0.7-1.2,0.2-2c-1.6-2.5-3-5.1-4.5-7.6c-1.4-2.6-3.2-4.8-5-7.1c-0.5-0.6-0.9-1-1.8-0.3c-4.3,3.6-8.6,7.2-12.7,11
		c-0.7,0.7-0.5,1.1,0,1.8c2.6,3.7,5.2,7.4,7.1,11.5c0.9,1.9,2,3.7,3,5.5c0.5,0.9,0.9,0.8,1.5,0.1c1.1-1.3,2.3-2.6,3.4-3.9
		c1.6-1.9,1.6-1.9-0.3-3.7C128.5,110.7,128.3,110.4,127.9,110z M110.5,134.4c-0.2-1.4-0.2-2.2-0.4-3.1c-0.9-4.4-1.1-9.1-4.1-12.9
		c-0.9-1.1-1.4-1.2-1.9,0.1c-1.7,4.7-2.4,9.7-3,14.7c1.4-2.3,2.9-4.4,4-7.1C106.7,129.2,107.9,131.9,110.5,134.4z"/>
	<path class="st0" d="M187.2,86.2c-1.7,2.5-2.9,5.2-4.7,7.6c-0.7,0.9-1.1,1.9-2.2,2.5c-0.4-0.6-0.3-1.2-0.1-1.6
		c3.9-7.3,4.4-15.4,5.2-23.4c0.6-6.7-1.1-12.6-4.5-18.3c-2.5-4.1-6.2-6.5-10.5-8.3c-2.9-1.2-5.9-1.7-9-1.3c-0.7,0.1-1.3,0.1-1.5,1
		c-0.2,1.7-1.3,2.9-2.6,3.8c-0.9,0.7-1,1.1-0.3,2c4.2,5.7,7,12.2,8.2,19.2c1.1,6,0.5,12,0.2,18c-0.4,7.3-4.2,12.9-8.3,18.4
		c-1.8,2.4-3.7,4.7-5.7,6.9c-0.3,0.3-0.6,1.2-1.2,0.7c-0.4-0.3,0-0.9,0.2-1.3c0.9-2.7,2.6-5.2,3.2-8.1c1.6-7.6,2.7-15.2,1.5-22.9
		c-1.1-7.1-4.7-13-9.5-18.2c-4.4-4.8-9.6-8.3-15.9-10.4c-6.8-2.2-16.4,2.5-19.6,6.6c-1.6,2-2.9,4.2-4.2,6.4
		c-0.8,1.3-1.2,1.6-2.4,0.4c-3.1-3.1-6.4-6.2-10.7-7.9c-4.9-2-9.9-2.1-14.8-0.3c-8.3,3-14.5,8.5-18,16.5c-2.7,6.2-3.4,13-3.1,19.7
		c0.2,6.4,1.7,12.4,4.9,18.1c-1.9-0.7-5.1-3.7-7-6.2c-4.3-5.6-6.1-12.1-7.1-18.9c-1.5-11,0.4-21.5,4.5-31.6c1.3-3.2,3-6.2,5.1-9
		c0.7,0.2,1.1-0.4,1.6-0.7c3.5-2.2,5.9-5.5,8.6-8.5c1.3-1.4,2.7-2.7,3.4-4.5c3.5-2.6,7.2-4.7,11.4-5.9c6.9-2,13.4-1.5,19.6,2.2
		c1,0.6,1.6,0.6,2.5-0.3c3.4-3.6,7.9-4.6,12.5-5.1c10.2-1.2,18.9,2,26.5,8.7c0.5,0.5,0.8,0.5,1.3,0c1.5-1.2,3.2-2,5.3-1.8
		c0.9,0.1,1.1-0.7,1.4-1.2c1.5-2.5,3.3-4.8,5.4-6.8c2.3-2.1,4.8-3.5,8-3.9c11.6-1.4,21.5,2.2,29.9,10.1c3.5,3.3,4.9,7.6,6.2,12
		c2.3,7.6,4,15.2,2.4,23.1c-2.4,12-7.8,22.3-17.3,30.3c-0.1,0.1-0.2,0.1-0.6,0.2c0.6-1.7,1.2-3.3,1.7-4.9c0.4-1,0.9-2,0.4-3.2
		c0.6-0.2,0.4-0.6,0.3-1c0-0.1-0.2-0.3-0.4-0.1C187.2,85.5,187,85.8,187.2,86.2z"/>
	<path class="st0" d="M12,77.8c-0.5-1.8-0.5-3.7-0.5-5.5c-0.5-11.5,2.2-22.4,6-33.2c2.4-6.8,6.2-12.3,12.2-16.2
		c3.8-2.5,8-3.8,12.7-4.1c2.8-0.2,5.6-0.5,8.4-0.7c7.6-0.4,12.1,3.5,15,10c-1.1,1.1-2.2,2.3-3.3,3.4c-2.9,3-5.8,5.9-8.8,8.9
		c-0.9,0.9-2.1,0.6-3.1,0.9c-3,1-5.4,2.8-7.8,4.8c-4.3,3.7-7.6,8.2-10.8,12.8c-1,1.4-1.1,3.2-2.1,4.6c-3.3,2.6-3.6,6.6-5,10.4
		c-2-6.4-1.3-12.7-1.1-19c-3,5.8-6,11.6-7.6,17.9c-0.8-2.4-1.1-4.8-1.3-7.3C13.3,69.6,12.8,73.8,12,77.8z"/>
	<path class="st1" d="M12,77.8c0.9-4,1.3-8.2,2.9-12.1c0.2,2.5,0.5,4.9,1.3,7.3c1.6-6.4,4.5-12.1,7.6-17.9c-0.2,6.3-0.9,12.6,1.1,19
		c1.4-3.8,1.7-7.8,5-10.4c-1.2,4.3-1.8,8.8-2.2,13.3c-0.8,8.1,0.7,15.7,3.7,23.1c1.5,3.7,2.5,7.6,4.8,11c0.2,0.3,0.5,0.7,0.3,1.3
		c-5.1-3.5-7.2-9.3-10.7-13.9c0,1.1,0.1,2.2,0.7,3.1c1.1,2.1,1.6,4.6,2.9,6.7c0.2,0.3,0.3,0.7,0,1l0,0c-8.6-8.1-15.4-17.3-17.2-29.5
		C12,79.1,12,78.5,12,77.8z"/>
	<path class="st0" d="M92.7,164.8c0.6,0.1,0.7,1.3,1.6,0.8c1.4,0.4,2.8,0.7,4.3,0.6c0.1,0.5,0.3,0.9,0.8,1c0.4,0,0.2-0.6,0.5-0.8
		c1.5,0.5,3,0.5,4.6,0.4c0.3,0.5-0.1,1.5,0.5,1.6c0.9,0.1,0.9-1.1,1.4-1.7c1.7,0.4,3.4-0.2,5.1-0.1c0,0.5,0.1,1,0.2,1.9
		c0.4-0.9,0.7-1.5,1-2.1c2.6-0.2,5.4,0.2,7.5-2c1.3-1.4,2.6-2.7,3.9-4.1c0.2,4.1-1.9,7.4-3.3,11c-1.2,3.4-3,4.7-6.8,4.5
		c-6.7-0.4-13.4,0.4-20.1,0.9c-1.3,0.1-2.1-0.3-2.9-1.3c-3.4-4.2-4.1-8.9-3.5-14.1C89,162.7,90.4,164.4,92.7,164.8z"/>
	<path class="st1" d="M132.5,183.9c0,1.1,0,1.9,0,2.7c0.1,1.7-0.4,3.3-1.9,4.2c-1.7,0.9-3.6,0.7-5.1-0.3c-1.7-1.1-2.9-2.7-3.2-4.8
		c-0.2-1.5,0.1-2.8,1.7-3.5c0.7-0.4,1-0.8,0-1.4c-1.6-1-2.7-2.4-1.9-4.4c0.9-2.2,2.4-3.9,4.8-4.5c1.8-0.4,3.1,0.6,4,2.1
		c0.4,0.7,0.7,1.6,1,2.5c0.8-0.2,0.9-1,1.3-1.6c1.2-1.7,2.5-2,4.3-1c2.3,1.2,3.9,4.6,3.3,7.1c-0.4,1.9-2.1,3-4.5,3
		c-0.8,0-1.5-0.4-2.4-0.1c1.2,2.2,3.2,2.9,5.4,3.3c0.2,0.7-0.4,1-0.8,1.4c-2.5,2.4-2.5,2.4-3.4-0.8
		C134.6,186.2,134,184.9,132.5,183.9z"/>
	<path class="st1" d="M79,176.6c0.8-2.2,1.1-4.5,4-4.3c2.3,0.1,5.4,2.5,5.9,4.7c0.5,2.1-0.5,3.7-3.6,5.5c0,0.1,0.1,0.2,0.1,0.3
		c3.6,1.7,3.9,4.5,0.8,7.1c-0.9,0.8-2,1.3-3.1,1.5c-2.8,0.7-4.9-0.8-5.1-3.7c-0.1-0.8,0-1.7,0-2.8c-1.7,1.2-2.6,2.6-2.8,4.4
		c-0.1,1.5-0.7,1.6-1.8,0.8c-0.2-0.2-0.5-0.3-0.7-0.5c-1.8-1.6-1.8-2,0.5-2.8c1.7-0.6,3-1.5,4.1-3.2c-3.3,0.2-6.7,0.9-7.8-3.2
		c-0.6-2.4,1.9-5.8,4.5-6.7C76.1,172.8,77.3,173.5,79,176.6z"/>
	<path class="st1" d="M53.6,40.4c2.9-3,5.9-5.9,8.8-8.9c1.1-1.1,2.2-2.3,3.3-3.4c3,0.2,3.9,2.7,5.2,4.7c-0.7,1.8-2.2,3.1-3.4,4.5
		c-2.7,3-5.1,6.3-8.6,8.5c-0.5,0.3-0.9,0.8-1.6,0.7c-0.4-0.8-1.3-0.8-2-1.2c-2.2-1-2.4-1.5-1.8-3.8C53.5,41.1,53.5,40.8,53.6,40.4z"
		/>
	<path class="st1" d="M124,160.3c-1.3,1.4-2.6,2.7-3.9,4.1c-2.1,2.2-4.9,1.8-7.5,2c0.5-1.9,1-3.8,1.5-5.7c0.3-1.1,2.8-2,3.8-1.5
		c0.5,0.3,0.3,0.7,0.3,1.1c-0.1,1.2-0.2,2.3-0.2,3.5c0,0.3,0.1,0.6,0.4,0.7c0.5,0.1,0.7-0.2,0.8-0.6c0.2-0.6,0.4-1.4,0.3-2
		c-0.5-3.3,1.7-5,4.1-7.2C123.8,156.9,123.9,158.6,124,160.3z"/>
	<path class="st0" d="M128.6,143.8c-0.4-2.6-0.1-5.2-0.2-7.7c0-0.5,0.2-0.9,0.8-0.6c1.1,0.6,2.1,0.9,2.1,2.6c0,3,0.2,6,0.5,9
		c0.1,1.3-0.1,2.5-0.9,3.5c-1.4,1.8-2.3,3.9-3.4,5.9c-0.7,1.3-0.9,3-2.2,4.6c0-1.7,0-3,0-4.3c1-0.6,1.1-1.7,1.6-2.6
		c1.5-2.9,2.5-6.1,3.7-9.2c0.2-0.5,0.4-1.1,0-1.6c-0.4-0.5-0.9,0.1-1.3,0.2C129,143.7,128.8,143.8,128.6,143.8z"/>
	<path class="st1" d="M103.9,151.1c2.1-0.2,4.2,0.2,6.3-0.3c0.2,1.8,0,3.7,0.5,5.5c0.2,0.8,0,1.3-0.9,1.4c-0.8,0.1-1.7,0.4-2.5,0.6
		c-2.5,0.6-2.5,0.6-2.8-1.9C104.4,154.6,104.1,152.9,103.9,151.1z"/>
	<path class="st1" d="M95.1,149.9c1.8,0.3,3.6,0.6,5.5,0.9c-0.1,1.9-0.3,3.9-0.4,5.8c-0.1,0.9-0.4,1.3-1.3,0.9
		c-0.1,0-0.2-0.1-0.3-0.1C93.9,156,93.9,156,95.1,149.9z"/>
	<path class="st1" d="M112.9,150.2c1.6-0.5,3.3-1,4.9-1.4c0.5,1.7,0.9,3.5,1.8,5c0.4,0.7,0.1,1-0.5,1.2c-1.6,0.5-3.2,1-4.7,1.5
		c-1.1,0.4-1.6,0.1-1.6-1.1C113,153.6,112.9,151.9,112.9,150.2z"/>
	<path class="st1" d="M111.5,166.6c-1.7,0-3.4,0.6-5.1,0.1c0.3-1.5,0.6-3,0.9-4.5c0.1-0.6-0.3-1.5,0.7-1.7c1.1-0.2,2.3-0.4,3.5-0.4
		c0.5,0,0.4,0.7,0.4,1.1C111.8,163,111.6,164.8,111.5,166.6z"/>
	<path class="st1" d="M88,147.6c1.6,0.5,3.1,1,4.7,1.5c-0.4,1.8-0.8,3.6-1.2,5.3c-0.2,0.7-0.5,0.9-1.2,0.5c-0.9-0.6-1.7-1.1-2.6-1.7
		c-0.6-0.4-0.7-0.9-0.6-1.6C87.5,150.4,87.7,149,88,147.6z"/>
	<path class="st0" d="M84.6,156.7c0.2,0.8,0.2,1.5,0.1,2.3c-4.1-2.1-6.5-7.9-6-14.2c0.7,1.8,1.4,3.7,2.2,5.4
		C82.1,152.4,82.6,154.9,84.6,156.7z"/>
	<path class="st1" d="M104.5,166.8c-1.5,0.1-3.1,0-4.6-0.4c0.3-1.3,0.5-2.7,0.6-4c0.1-1.7,0.6-1.9,3.5-1.8c1.8,0.1,0.8,1.3,0.8,2
		C104.9,164,104.6,165.4,104.5,166.8z"/>
	<path class="st1" d="M92.7,164.8c-2.2-0.4-3.6-2.1-5.3-3.4c-0.3-1.1-0.5-2.5,0-3.2c0.8-1.2,1.7,0.6,2.7,0.6c1.9,0,2.4,1,2.2,2.8
		C92.2,162.6,92.6,163.7,92.7,164.8z"/>
	<path class="st1" d="M128.6,143.8c0.2-0.1,0.5-0.1,0.7-0.2c0.5-0.1,0.9-0.6,1.3-0.2c0.4,0.5,0.2,1.1,0,1.6
		c-1.2,3.1-2.2,6.2-3.7,9.2c-0.5,0.9-0.6,2-1.6,2.6c-0.3-2.3-0.3-4.4,1.4-6.3C128.4,148.7,128.6,146.2,128.6,143.8z"/>
	<path class="st1" d="M84.6,156.7c-2-1.7-2.6-4.2-3.7-6.4c-0.9-1.7-1.5-3.6-2.2-5.4c0-0.4,0-0.8,0-1.2c0.9,0.3,1.8,0.6,2.7,0.9
		c-0.1,0.9-0.2,1.8-0.3,2.8c-0.2,1.4,0.1,2.6,1.4,3.5C84.7,152.2,85.3,154.2,84.6,156.7z"/>
	<path class="st0" d="M81.4,144.5c-0.9-0.3-1.8-0.6-2.7-0.9c0-1.5,0.1-2.9,0.1-4.4c0-0.6,0.1-1.1,0.8-1.2c0.9-0.3,2.2-1.1,2.7-0.8
		c0.7,0.5,0,1.7-0.1,2.7C82,141.4,81.7,142.9,81.4,144.5z"/>
	<path class="st1" d="M120.9,147.2c1.3-0.6,2.5-1.5,4-1.4c0.4,0.6,0.7,1.3,0.8,2c0.4,2.3-1.4,3.9-3.6,3.3c-0.4-0.1-0.5-0.4-0.6-0.8
		C121.3,149.3,121.1,148.2,120.9,147.2z"/>
	<path class="st1" d="M98.6,166.2c-1.5,0.2-2.9-0.2-4.3-0.6c0.2-2.2,0.6-4.2,2.7-5.6C97.6,162.1,98.1,164.1,98.6,166.2z"/>
	<path class="st1" d="M83.2,145.6c1.1,0.1,2,0.8,3.1,1.1c-0.1,1-0.2,2-0.7,3C82.6,148.4,82.5,148.3,83.2,145.6z"/>
	<path class="st0" d="M180,96.9c-0.1,0.1-0.1,0.2-0.2,0.3c0,0-0.1-0.1-0.1-0.1c0-0.1,0.1-0.2,0.2-0.3
		C179.9,96.8,179.9,96.8,180,96.9z"/>
	<path class="st1" d="M29.3,109.3c0,0,0.1,0,0.1,0C29.4,109.2,29.4,109.3,29.3,109.3C29.4,109.3,29.3,109.3,29.3,109.3z"/>
	<path class="st2" d="M110.5,134.4c-2.6-2.5-3.8-5.3-5.4-8.2c-1.1,2.8-2.6,4.9-4,7.1c0.6-5,1.3-10,3-14.7c0.5-1.3,1-1.2,1.9-0.1
		c3,3.8,3.2,8.4,4.1,12.9C110.2,132.2,110.3,133,110.5,134.4z"/>
	<path class="st2" d="M187.2,86.2c-0.2-0.4,0-0.7,0.2-0.9c0.2-0.2,0.4,0,0.4,0.1c0.1,0.4,0.2,0.8-0.3,1
		C187.4,86.2,187.3,86.2,187.2,86.2z"/>
</g>
</svg>
