<?xml version="1.0" encoding="utf-8"?>
<!-- Generator: Adobe Illustrator 24.2.1, SVG Export Plug-In . SVG Version: 6.00 Build 0)  -->
<svg version="1.1" id="Capa_1" xmlns="http://www.w3.org/2000/svg" xmlns:xlink="http://www.w3.org/1999/xlink" x="0px" y="0px"
	 viewBox="0 0 2500 2500" style="enable-background:new 0 0 2500 2500;" xml:space="preserve">
<style type="text/css">
	.st0{fill-rule:evenodd;clip-rule:evenodd;fill:#CC2229;}
	.st1{fill-rule:evenodd;clip-rule:evenodd;fill:#FFF22D;}
</style>
<g>
	<path class="st0" d="M110.3,832l1099.4,1323.9L2389.7,832l-416.8-435.2l-1425.2-2.3L110.3,832L110.3,832z"/>
	<path class="st1" d="M301.5,839.8L592.6,539l182.9,2.3C493.1,677.8,424.6,863.1,471.3,1032L301.5,839.8z M945.3,1614
		c226.1,62,365.6,72.1,566.6,10.4l-289.5,303.4L945.3,1614L945.3,1614z M561.9,1179.3l236,265c35.8-138.8,408.7-54,441.4,59.7
		c156.2,51.4,422.5-36.1,426.3-117.6C1664.7,1190,757.2,1353.1,561.9,1179.3L561.9,1179.3z M1955.7,587.7l-6.3,280.3h-367.6
		c5-185.3-135.9-276.4-407.1-268.9c-190.9,3.7-374.4,78.4-376.9,201.5c0,292.3,1028.1-23.6,1110.2,384.4l298.1-344.8L1955.7,587.7
		L1955.7,587.7z M1518.4,542.3l195,0.2l-42.7,145.1C1634.8,599.8,1574.3,567.7,1518.4,542.3L1518.4,542.3z"/>
</g>
</svg>
