<?xml version="1.0" encoding="utf-8"?>
<!-- Generator: Adobe Illustrator 24.2.1, SVG Export Plug-In . SVG Version: 6.00 Build 0)  -->
<svg version="1.1" id="Layer_2_1_" xmlns="http://www.w3.org/2000/svg" xmlns:xlink="http://www.w3.org/1999/xlink" x="0px" y="0px"
	 viewBox="0 0 12.7 17.8" style="enable-background:new 0 0 12.7 17.8;" xml:space="preserve">
<style type="text/css">
	.st0{fill:#CB1E40;stroke:#000000;stroke-width:0.5;stroke-miterlimit:10;}
	.st1{fill:#CB1E40;}
</style>
<polygon class="st0" points="0.6,16.9 0.6,0.8 12.1,12.3 5.2,12.3 "/>
<g id="XMLID_17_">
	<path id="XMLID_19_" class="st0" d="M31,11.7L27.1,0.4c-0.3-0.6,0.1-1.4,0.8-1.7l0,0c0.6-0.3,1.4,0.1,1.7,0.8l2,5.9
		c0.3,0.6,0.9,0.9,1.4,0.8l3.1-1c1.4-0.5,2.8,0.3,3.3,1.7l1.7,4.9c0.8,2.4-0.3,5.1-2.7,6c0,0-0.1,0.1-0.3,0.1c0,0-2.7,1.5-4.5,0.1
		c-1.9-1.4-3.6-2.4-5.4-3.3c-1.8-0.9-1.5-2.4-0.6-2.7C28.5,11.8,31.7,14,31,11.7z"/>
</g>
<polygon id="XMLID_41_" class="st1" points="67.9,2.3 67.9,0.8 60.2,0.8 60.2,2.3 63.3,2.3 63.3,15.4 60.2,15.4 60.2,16.9 
	63.3,16.9 64.8,16.9 67.9,16.9 67.9,15.4 64.8,15.4 64.8,2.3 "/>
</svg>
